<svg version="1" xmlns="http://www.w3.org/2000/svg" width="861.333" height="861.333" viewBox="0 0 646.000000 646.000000"><path d="M260 8.1c-88.2 4.5-142.7 21-173 52.5-17.9 18.6-26.6 38.9-29 68-1.4 16.6-1.3 345.2 0 356.4 2.8 22.5 11.8 41.5 27.9 59.2l5.1 5.6v24.4c0 18.7.4 25.8 1.5 30.3 4.9 18.8 22.2 34 41.2 36.4 17 2.1 31.9-3.3 43.3-15.5 9.7-10.5 12.9-19.2 13.7-37.6l.6-12.8H457v8.2c.1 19.4 4.4 32.1 14.5 42.8 5.9 6.1 15.6 11.9 23.5 14 7.3 2 20 1.5 27.4-1 16.4-5.4 28.9-18.5 33.1-34.5 1.1-4.5 1.5-11.6 1.5-30.3v-24.4l5.1-5.6c16.1-17.7 25.1-36.7 27.9-59.2 1.3-11.2 1.4-339.8 0-356.4-2.4-29.1-11.1-49.4-29-68-30.8-31.9-84.6-48-175.9-52.6-23.2-1.1-101.8-1.1-125.1.1zm264 215.4V307H124V140h400v83.5zM186.6 409.4c12.5 3.3 25.3 13.4 31.3 24.6 14.5 27.2 1.6 60.5-27.5 71.1-8.4 3.1-24.4 3.1-32.8 0-24.4-8.9-38-33.8-32.1-59 4.1-17.1 18.4-32 35.4-36.7 6.2-1.7 19.4-1.7 25.7 0zm300 0c12.5 3.3 25.3 13.4 31.3 24.6 14.5 27.2 1.6 60.5-27.5 71.1-8.4 3.1-24.4 3.1-32.8 0-24.4-8.9-38-33.8-32.1-59 4.1-17.1 18.4-32 35.4-36.7 6.2-1.7 19.4-1.7 25.7 0z"/></svg>